<mxfile host="app.diagrams.net" agent="Mozilla/5.0 (Windows NT 10.0; Win64; x64) AppleWebKit/537.36 (KHTML, like Gecko) Chrome/135.0.0.0 Safari/537.36" version="26.2.14">
  <diagram id="C5RBs43oDa-KdzZeNtuy" name="Page-1">
    <mxGraphModel dx="2469" dy="958" grid="1" gridSize="10" guides="1" tooltips="1" connect="1" arrows="1" fold="1" page="1" pageScale="1" pageWidth="827" pageHeight="1169" math="0" shadow="0">
      <root>
        <mxCell id="WIyWlLk6GJQsqaUBKTNV-0" />
        <mxCell id="WIyWlLk6GJQsqaUBKTNV-1" parent="WIyWlLk6GJQsqaUBKTNV-0" />
        <mxCell id="9sy0yAHMBCso_MkyRumJ-170" value="Inicio de sesión en la cuenta" style="rounded=1;whiteSpace=wrap;html=1;" vertex="1" parent="WIyWlLk6GJQsqaUBKTNV-1">
          <mxGeometry x="480" y="250" width="200" height="60" as="geometry" />
        </mxCell>
        <mxCell id="9sy0yAHMBCso_MkyRumJ-171" value="Ingresar credenciales" style="rounded=1;whiteSpace=wrap;html=1;" vertex="1" parent="WIyWlLk6GJQsqaUBKTNV-1">
          <mxGeometry x="480" y="340" width="200" height="60" as="geometry" />
        </mxCell>
        <mxCell id="9sy0yAHMBCso_MkyRumJ-172" value="¿Credenciales válidas?" style="rhombus;whiteSpace=wrap;html=1;" vertex="1" parent="WIyWlLk6GJQsqaUBKTNV-1">
          <mxGeometry x="480" y="430" width="200" height="60" as="geometry" />
        </mxCell>
        <mxCell id="9sy0yAHMBCso_MkyRumJ-193" style="edgeStyle=orthogonalEdgeStyle;rounded=0;orthogonalLoop=1;jettySize=auto;html=1;" edge="1" parent="WIyWlLk6GJQsqaUBKTNV-1" source="9sy0yAHMBCso_MkyRumJ-173">
          <mxGeometry relative="1" as="geometry">
            <mxPoint x="180" y="560" as="targetPoint" />
            <Array as="points">
              <mxPoint x="180" y="460" />
            </Array>
          </mxGeometry>
        </mxCell>
        <mxCell id="9sy0yAHMBCso_MkyRumJ-173" value="Mostrar mensaje de error" style="rounded=1;whiteSpace=wrap;html=1;" vertex="1" parent="WIyWlLk6GJQsqaUBKTNV-1">
          <mxGeometry x="220" y="430" width="200" height="60" as="geometry" />
        </mxCell>
        <mxCell id="9sy0yAHMBCso_MkyRumJ-174" value="Selección de artículo" style="rounded=1;whiteSpace=wrap;html=1;" vertex="1" parent="WIyWlLk6GJQsqaUBKTNV-1">
          <mxGeometry x="740" y="430" width="200" height="60" as="geometry" />
        </mxCell>
        <mxCell id="9sy0yAHMBCso_MkyRumJ-175" value="Disponible" style="rhombus;whiteSpace=wrap;html=1;" vertex="1" parent="WIyWlLk6GJQsqaUBKTNV-1">
          <mxGeometry x="740" y="520" width="200" height="60" as="geometry" />
        </mxCell>
        <mxCell id="9sy0yAHMBCso_MkyRumJ-192" style="edgeStyle=orthogonalEdgeStyle;rounded=0;orthogonalLoop=1;jettySize=auto;html=1;entryX=0;entryY=0.5;entryDx=0;entryDy=0;" edge="1" parent="WIyWlLk6GJQsqaUBKTNV-1" source="9sy0yAHMBCso_MkyRumJ-176" target="9sy0yAHMBCso_MkyRumJ-188">
          <mxGeometry relative="1" as="geometry">
            <Array as="points">
              <mxPoint x="180" y="560" />
              <mxPoint x="180" y="810" />
            </Array>
          </mxGeometry>
        </mxCell>
        <mxCell id="9sy0yAHMBCso_MkyRumJ-176" value="Mostrar mensaje de agotado" style="rounded=1;whiteSpace=wrap;html=1;" vertex="1" parent="WIyWlLk6GJQsqaUBKTNV-1">
          <mxGeometry x="220" y="525" width="200" height="60" as="geometry" />
        </mxCell>
        <mxCell id="9sy0yAHMBCso_MkyRumJ-177" value="Agregar al carrito" style="rounded=1;whiteSpace=wrap;html=1;" vertex="1" parent="WIyWlLk6GJQsqaUBKTNV-1">
          <mxGeometry x="1041" y="520" width="200" height="60" as="geometry" />
        </mxCell>
        <mxCell id="9sy0yAHMBCso_MkyRumJ-198" style="edgeStyle=orthogonalEdgeStyle;rounded=0;orthogonalLoop=1;jettySize=auto;html=1;" edge="1" parent="WIyWlLk6GJQsqaUBKTNV-1" source="9sy0yAHMBCso_MkyRumJ-178" target="9sy0yAHMBCso_MkyRumJ-196">
          <mxGeometry relative="1" as="geometry" />
        </mxCell>
        <mxCell id="9sy0yAHMBCso_MkyRumJ-178" value="Continuar al pago" style="rounded=1;whiteSpace=wrap;html=1;" vertex="1" parent="WIyWlLk6GJQsqaUBKTNV-1">
          <mxGeometry x="1041" y="610" width="200" height="60" as="geometry" />
        </mxCell>
        <mxCell id="9sy0yAHMBCso_MkyRumJ-179" style="endArrow=block;" edge="1" parent="WIyWlLk6GJQsqaUBKTNV-1" source="9sy0yAHMBCso_MkyRumJ-170" target="9sy0yAHMBCso_MkyRumJ-171">
          <mxGeometry relative="1" as="geometry" />
        </mxCell>
        <mxCell id="9sy0yAHMBCso_MkyRumJ-180" style="endArrow=block;" edge="1" parent="WIyWlLk6GJQsqaUBKTNV-1" source="9sy0yAHMBCso_MkyRumJ-171" target="9sy0yAHMBCso_MkyRumJ-172">
          <mxGeometry relative="1" as="geometry" />
        </mxCell>
        <mxCell id="9sy0yAHMBCso_MkyRumJ-181" value="F" style="endArrow=block;" edge="1" parent="WIyWlLk6GJQsqaUBKTNV-1" source="9sy0yAHMBCso_MkyRumJ-172" target="9sy0yAHMBCso_MkyRumJ-173">
          <mxGeometry relative="1" as="geometry">
            <mxPoint x="680" y="460" as="targetPoint" />
          </mxGeometry>
        </mxCell>
        <mxCell id="9sy0yAHMBCso_MkyRumJ-182" value="V" style="endArrow=block;" edge="1" parent="WIyWlLk6GJQsqaUBKTNV-1" source="9sy0yAHMBCso_MkyRumJ-172" target="9sy0yAHMBCso_MkyRumJ-174">
          <mxGeometry relative="1" as="geometry" />
        </mxCell>
        <mxCell id="9sy0yAHMBCso_MkyRumJ-183" style="endArrow=block;" edge="1" parent="WIyWlLk6GJQsqaUBKTNV-1" source="9sy0yAHMBCso_MkyRumJ-174" target="9sy0yAHMBCso_MkyRumJ-175">
          <mxGeometry relative="1" as="geometry" />
        </mxCell>
        <mxCell id="9sy0yAHMBCso_MkyRumJ-184" value="F" style="endArrow=block;" edge="1" parent="WIyWlLk6GJQsqaUBKTNV-1" source="9sy0yAHMBCso_MkyRumJ-175" target="9sy0yAHMBCso_MkyRumJ-176">
          <mxGeometry relative="1" as="geometry">
            <mxPoint x="730" y="630" as="targetPoint" />
          </mxGeometry>
        </mxCell>
        <mxCell id="9sy0yAHMBCso_MkyRumJ-185" value="V" style="endArrow=block;" edge="1" parent="WIyWlLk6GJQsqaUBKTNV-1" source="9sy0yAHMBCso_MkyRumJ-175" target="9sy0yAHMBCso_MkyRumJ-177">
          <mxGeometry relative="1" as="geometry" />
        </mxCell>
        <mxCell id="9sy0yAHMBCso_MkyRumJ-186" style="endArrow=block;" edge="1" parent="WIyWlLk6GJQsqaUBKTNV-1" source="9sy0yAHMBCso_MkyRumJ-177" target="9sy0yAHMBCso_MkyRumJ-178">
          <mxGeometry relative="1" as="geometry" />
        </mxCell>
        <mxCell id="9sy0yAHMBCso_MkyRumJ-187" value="Inicio" style="rounded=1;whiteSpace=wrap;html=1;" vertex="1" parent="WIyWlLk6GJQsqaUBKTNV-1">
          <mxGeometry x="480" y="160" width="200" height="60" as="geometry" />
        </mxCell>
        <mxCell id="9sy0yAHMBCso_MkyRumJ-188" value="Fin" style="rounded=1;whiteSpace=wrap;html=1;" vertex="1" parent="WIyWlLk6GJQsqaUBKTNV-1">
          <mxGeometry x="470" y="780" width="200" height="60" as="geometry" />
        </mxCell>
        <mxCell id="9sy0yAHMBCso_MkyRumJ-189" style="endArrow=block;exitX=0.5;exitY=1;exitDx=0;exitDy=0;entryX=0.5;entryY=0;entryDx=0;entryDy=0;" edge="1" parent="WIyWlLk6GJQsqaUBKTNV-1" source="9sy0yAHMBCso_MkyRumJ-187" target="9sy0yAHMBCso_MkyRumJ-170">
          <mxGeometry relative="1" as="geometry">
            <mxPoint x="590" y="320" as="sourcePoint" />
            <mxPoint x="590" y="350" as="targetPoint" />
          </mxGeometry>
        </mxCell>
        <mxCell id="9sy0yAHMBCso_MkyRumJ-199" style="edgeStyle=orthogonalEdgeStyle;rounded=0;orthogonalLoop=1;jettySize=auto;html=1;entryX=1;entryY=0.5;entryDx=0;entryDy=0;" edge="1" parent="WIyWlLk6GJQsqaUBKTNV-1" source="9sy0yAHMBCso_MkyRumJ-196" target="9sy0yAHMBCso_MkyRumJ-188">
          <mxGeometry relative="1" as="geometry">
            <Array as="points">
              <mxPoint x="1141" y="810" />
            </Array>
          </mxGeometry>
        </mxCell>
        <mxCell id="9sy0yAHMBCso_MkyRumJ-196" value="Crear Factura" style="rounded=1;whiteSpace=wrap;html=1;" vertex="1" parent="WIyWlLk6GJQsqaUBKTNV-1">
          <mxGeometry x="1041" y="700" width="200" height="60" as="geometry" />
        </mxCell>
      </root>
    </mxGraphModel>
  </diagram>
</mxfile>
